<?xml version="1.0" encoding="UTF-8" standalone="no"?>
<!DOCTYPE svg PUBLIC "-//W3C//DTD SVG 1.1//EN"
 "http://www.w3.org/Graphics/SVG/1.1/DTD/svg11.dtd">
<!-- Generated by graphviz version 2.28.0 (20120602.1732)
 -->
<!-- Title: controllers_diagram Pages: 1 -->
<svg width="562pt" height="573pt"
 viewBox="0.00 0.00 561.78 573.00" xmlns="http://www.w3.org/2000/svg" xmlns:xlink="http://www.w3.org/1999/xlink">
<g id="graph1" class="graph" transform="scale(1 1) rotate(0) translate(4 569)">
<title>controllers_diagram</title>
<polygon fill="white" stroke="white" points="-4,5 -4,-569 558.779,-569 558.779,5 -4,5"/>
<!-- _diagram_info -->
<g id="node1" class="node"><title>_diagram_info</title>
<text text-anchor="start" x="328" y="-389" font-family="Times,serif" font-size="13.00">Controllers diagram</text>
<text text-anchor="start" x="328" y="-373.4" font-family="Times,serif" font-size="13.00">Date: Jun 02 2012 &#45; 13:45</text>
<text text-anchor="start" x="328" y="-357.8" font-family="Times,serif" font-size="13.00">Migration version: 20120602165820</text>
<text text-anchor="start" x="328" y="-342.2" font-family="Times,serif" font-size="13.00">Generated by RailRoady 1.0.7</text>
<text text-anchor="start" x="328" y="-326.6" font-family="Times,serif" font-size="13.00">http://railroady.prestonlee.com</text>
</g>
<!-- ApplicationController -->
<g id="node2" class="node"><title>ApplicationController</title>
<polyline fill="none" stroke="black" points="140,-176.5 311.635,-176.5 "/>
<path fill="none" stroke="black" d="M311.635,-176.5C317.635,-176.5 323.635,-182.5 323.635,-188.5"/>
<polyline fill="none" stroke="black" points="323.635,-188.5 323.635,-279.7 "/>
<path fill="none" stroke="black" d="M323.635,-279.7C323.635,-285.7 317.635,-291.7 311.635,-291.7"/>
<polyline fill="none" stroke="black" points="311.635,-291.7 140,-291.7 "/>
<path fill="none" stroke="black" d="M140,-291.7C134,-291.7 128,-285.7 128,-279.7"/>
<polyline fill="none" stroke="black" points="128,-279.7 128,-188.5 "/>
<path fill="none" stroke="black" d="M128,-188.5C128,-182.5 134,-176.5 140,-176.5"/>
<text text-anchor="middle" x="225.817" y="-273.7" font-family="Times,serif" font-size="14.00">ApplicationController</text>
<polyline fill="none" stroke="black" points="128,-266.9 323.635,-266.9 "/>
<text text-anchor="start" x="136" y="-248.9" font-family="Times,serif" font-size="14.00">_one_time_conditions_valid_8?</text>
<text text-anchor="start" x="136" y="-232.1" font-family="Times,serif" font-size="14.00">robots</text>
<polyline fill="none" stroke="black" points="128,-225.3 323.635,-225.3 "/>
<polyline fill="none" stroke="black" points="128,-201.3 323.635,-201.3 "/>
<text text-anchor="start" x="136" y="-183.3" font-family="Times,serif" font-size="14.00">_layout</text>
</g>
<!-- DynamicPagesController -->
<g id="node3" class="node"><title>DynamicPagesController</title>
<polyline fill="none" stroke="black" points="364,-128.5 497.524,-128.5 "/>
<path fill="none" stroke="black" d="M497.524,-128.5C503.524,-128.5 509.524,-134.5 509.524,-140.5"/>
<polyline fill="none" stroke="black" points="509.524,-140.5 509.524,-214.9 "/>
<path fill="none" stroke="black" d="M509.524,-214.9C509.524,-220.9 503.524,-226.9 497.524,-226.9"/>
<polyline fill="none" stroke="black" points="497.524,-226.9 364,-226.9 "/>
<path fill="none" stroke="black" d="M364,-226.9C358,-226.9 352,-220.9 352,-214.9"/>
<polyline fill="none" stroke="black" points="352,-214.9 352,-140.5 "/>
<path fill="none" stroke="black" d="M352,-140.5C352,-134.5 358,-128.5 364,-128.5"/>
<text text-anchor="middle" x="430.762" y="-208.9" font-family="Times,serif" font-size="14.00">DynamicPagesController</text>
<polyline fill="none" stroke="black" points="352,-202.1 509.524,-202.1 "/>
<text text-anchor="start" x="360" y="-184.1" font-family="Times,serif" font-size="14.00">home</text>
<polyline fill="none" stroke="black" points="352,-177.3 509.524,-177.3 "/>
<polyline fill="none" stroke="black" points="352,-153.3 509.524,-153.3 "/>
<text text-anchor="start" x="360" y="-135.3" font-family="Times,serif" font-size="14.00">_layout</text>
</g>
<!-- SessionsController -->
<g id="node4" class="node"><title>SessionsController</title>
<polyline fill="none" stroke="black" points="444,-432.5 541.779,-432.5 "/>
<path fill="none" stroke="black" d="M541.779,-432.5C547.779,-432.5 553.779,-438.5 553.779,-444.5"/>
<polyline fill="none" stroke="black" points="553.779,-444.5 553.779,-552.5 "/>
<path fill="none" stroke="black" d="M553.779,-552.5C553.779,-558.5 547.779,-564.5 541.779,-564.5"/>
<polyline fill="none" stroke="black" points="541.779,-564.5 444,-564.5 "/>
<path fill="none" stroke="black" d="M444,-564.5C438,-564.5 432,-558.5 432,-552.5"/>
<polyline fill="none" stroke="black" points="432,-552.5 432,-444.5 "/>
<path fill="none" stroke="black" d="M432,-444.5C432,-438.5 438,-432.5 444,-432.5"/>
<text text-anchor="middle" x="492.89" y="-546.5" font-family="Times,serif" font-size="14.00">SessionsController</text>
<polyline fill="none" stroke="black" points="432,-539.7 553.779,-539.7 "/>
<text text-anchor="start" x="440" y="-521.7" font-family="Times,serif" font-size="14.00">create</text>
<text text-anchor="start" x="440" y="-504.9" font-family="Times,serif" font-size="14.00">destroy</text>
<text text-anchor="start" x="440" y="-488.1" font-family="Times,serif" font-size="14.00">new</text>
<polyline fill="none" stroke="black" points="432,-481.3 553.779,-481.3 "/>
<polyline fill="none" stroke="black" points="432,-457.3 553.779,-457.3 "/>
<text text-anchor="start" x="440" y="-439.3" font-family="Times,serif" font-size="14.00">_layout</text>
</g>
<!-- StaticPagesController -->
<g id="node5" class="node"><title>StaticPagesController</title>
<polyline fill="none" stroke="black" points="156,-336.5 270.09,-336.5 "/>
<path fill="none" stroke="black" d="M270.09,-336.5C276.09,-336.5 282.09,-342.5 282.09,-348.5"/>
<polyline fill="none" stroke="black" points="282.09,-348.5 282.09,-473.3 "/>
<path fill="none" stroke="black" d="M282.09,-473.3C282.09,-479.3 276.09,-485.3 270.09,-485.3"/>
<polyline fill="none" stroke="black" points="270.09,-485.3 156,-485.3 "/>
<path fill="none" stroke="black" d="M156,-485.3C150,-485.3 144,-479.3 144,-473.3"/>
<polyline fill="none" stroke="black" points="144,-473.3 144,-348.5 "/>
<path fill="none" stroke="black" d="M144,-348.5C144,-342.5 150,-336.5 156,-336.5"/>
<text text-anchor="middle" x="213.045" y="-467.3" font-family="Times,serif" font-size="14.00">StaticPagesController</text>
<polyline fill="none" stroke="black" points="144,-460.5 282.09,-460.5 "/>
<text text-anchor="start" x="152" y="-442.5" font-family="Times,serif" font-size="14.00">about</text>
<text text-anchor="start" x="152" y="-425.7" font-family="Times,serif" font-size="14.00">index</text>
<text text-anchor="start" x="152" y="-408.9" font-family="Times,serif" font-size="14.00">landing</text>
<text text-anchor="start" x="152" y="-392.1" font-family="Times,serif" font-size="14.00">styleTests</text>
<polyline fill="none" stroke="black" points="144,-385.3 282.09,-385.3 "/>
<polyline fill="none" stroke="black" points="144,-361.3 282.09,-361.3 "/>
<text text-anchor="start" x="152" y="-343.3" font-family="Times,serif" font-size="14.00">_layout</text>
</g>
<!-- UsersController -->
<g id="node6" class="node"><title>UsersController</title>
<polyline fill="none" stroke="black" points="12,-0.5 93.4277,-0.5 "/>
<path fill="none" stroke="black" d="M93.4277,-0.5C99.4277,-0.5 105.428,-6.5 105.428,-12.5"/>
<polyline fill="none" stroke="black" points="105.428,-12.5 105.428,-137.3 "/>
<path fill="none" stroke="black" d="M105.428,-137.3C105.428,-143.3 99.4277,-149.3 93.4277,-149.3"/>
<polyline fill="none" stroke="black" points="93.4277,-149.3 12,-149.3 "/>
<path fill="none" stroke="black" d="M12,-149.3C6,-149.3 0,-143.3 0,-137.3"/>
<polyline fill="none" stroke="black" points="0,-137.3 0,-12.5 "/>
<path fill="none" stroke="black" d="M0,-12.5C0,-6.5 6,-0.5 12,-0.5"/>
<text text-anchor="middle" x="52.7139" y="-131.3" font-family="Times,serif" font-size="14.00">UsersController</text>
<polyline fill="none" stroke="black" points="0,-124.5 105.428,-124.5 "/>
<text text-anchor="start" x="8" y="-106.5" font-family="Times,serif" font-size="14.00">create</text>
<text text-anchor="start" x="8" y="-89.7" font-family="Times,serif" font-size="14.00">new</text>
<text text-anchor="start" x="8" y="-72.9" font-family="Times,serif" font-size="14.00">profile</text>
<text text-anchor="start" x="8" y="-56.1" font-family="Times,serif" font-size="14.00">show</text>
<polyline fill="none" stroke="black" points="0,-49.3 105.428,-49.3 "/>
<polyline fill="none" stroke="black" points="0,-25.3 105.428,-25.3 "/>
<text text-anchor="start" x="8" y="-7.3" font-family="Times,serif" font-size="14.00">_layout</text>
</g>
</g>
</svg>
