<?xml version="1.0" encoding="UTF-8" standalone="no"?>
<!DOCTYPE svg PUBLIC "-//W3C//DTD SVG 1.1//EN"
 "http://www.w3.org/Graphics/SVG/1.1/DTD/svg11.dtd">
<!-- Generated by graphviz version 2.28.0 (20120602.1732)
 -->
<!-- Title: models_diagram Pages: 1 -->
<svg width="1577pt" height="1042pt"
 viewBox="0.00 0.00 1577.01 1042.00" xmlns="http://www.w3.org/2000/svg" xmlns:xlink="http://www.w3.org/1999/xlink">
<g id="graph1" class="graph" transform="scale(1 1) rotate(0) translate(4 1038)">
<title>models_diagram</title>
<polygon fill="white" stroke="white" points="-4,5 -4,-1038 1574.01,-1038 1574.01,5 -4,5"/>
<!-- _diagram_info -->
<g id="node1" class="node"><title>_diagram_info</title>
<text text-anchor="start" x="7.31226" y="-992" font-family="Times,serif" font-size="13.00">Models diagram</text>
<text text-anchor="start" x="7.31226" y="-976.4" font-family="Times,serif" font-size="13.00">Date: Jun 02 2012 &#45; 13:45</text>
<text text-anchor="start" x="7.31226" y="-960.8" font-family="Times,serif" font-size="13.00">Migration version: 20120602165820</text>
<text text-anchor="start" x="7.31226" y="-945.2" font-family="Times,serif" font-size="13.00">Generated by RailRoady 1.0.7</text>
<text text-anchor="start" x="7.31226" y="-929.6" font-family="Times,serif" font-size="13.00">http://railroady.prestonlee.com</text>
</g>
<!-- Badge -->
<g id="node2" class="node"><title>Badge</title>
<polyline fill="none" stroke="black" points="676.495,-311.2 785.505,-311.2 "/>
<path fill="none" stroke="black" d="M785.505,-311.2C791.505,-311.2 797.505,-317.2 797.505,-323.2"/>
<polyline fill="none" stroke="black" points="797.505,-323.2 797.505,-432.8 "/>
<path fill="none" stroke="black" d="M797.505,-432.8C797.505,-438.8 791.505,-444.8 785.505,-444.8"/>
<polyline fill="none" stroke="black" points="785.505,-444.8 676.495,-444.8 "/>
<path fill="none" stroke="black" d="M676.495,-444.8C670.495,-444.8 664.495,-438.8 664.495,-432.8"/>
<polyline fill="none" stroke="black" points="664.495,-432.8 664.495,-323.2 "/>
<path fill="none" stroke="black" d="M664.495,-323.2C664.495,-317.2 670.495,-311.2 676.495,-311.2"/>
<text text-anchor="middle" x="731" y="-426.8" font-family="Times,serif" font-size="14.00">Badge</text>
<polyline fill="none" stroke="black" points="664.495,-420 797.505,-420 "/>
<text text-anchor="start" x="672.495" y="-402" font-family="Times,serif" font-size="14.00">name :string</text>
<text text-anchor="start" x="672.495" y="-385.2" font-family="Times,serif" font-size="14.00">description :text</text>
<text text-anchor="start" x="672.495" y="-368.4" font-family="Times,serif" font-size="14.00">image_large :string</text>
<text text-anchor="start" x="672.495" y="-351.6" font-family="Times,serif" font-size="14.00">image_small :string</text>
<text text-anchor="start" x="672.495" y="-334.8" font-family="Times,serif" font-size="14.00">created_at :datetime</text>
<text text-anchor="start" x="672.495" y="-318" font-family="Times,serif" font-size="14.00">updated_at :datetime</text>
</g>
<!-- Category -->
<g id="node3" class="node"><title>Category</title>
<polyline fill="none" stroke="black" points="236.495,-899.2 345.505,-899.2 "/>
<path fill="none" stroke="black" d="M345.505,-899.2C351.505,-899.2 357.505,-905.2 357.505,-911.2"/>
<polyline fill="none" stroke="black" points="357.505,-911.2 357.505,-1020.8 "/>
<path fill="none" stroke="black" d="M357.505,-1020.8C357.505,-1026.8 351.505,-1032.8 345.505,-1032.8"/>
<polyline fill="none" stroke="black" points="345.505,-1032.8 236.495,-1032.8 "/>
<path fill="none" stroke="black" d="M236.495,-1032.8C230.495,-1032.8 224.495,-1026.8 224.495,-1020.8"/>
<polyline fill="none" stroke="black" points="224.495,-1020.8 224.495,-911.2 "/>
<path fill="none" stroke="black" d="M224.495,-911.2C224.495,-905.2 230.495,-899.2 236.495,-899.2"/>
<text text-anchor="middle" x="291" y="-1014.8" font-family="Times,serif" font-size="14.00">Category</text>
<polyline fill="none" stroke="black" points="224.495,-1008 357.505,-1008 "/>
<text text-anchor="start" x="232.495" y="-990" font-family="Times,serif" font-size="14.00">name :string</text>
<text text-anchor="start" x="232.495" y="-973.2" font-family="Times,serif" font-size="14.00">description :text</text>
<text text-anchor="start" x="232.495" y="-956.4" font-family="Times,serif" font-size="14.00">image_large :text</text>
<text text-anchor="start" x="232.495" y="-939.6" font-family="Times,serif" font-size="14.00">image_small :text</text>
<text text-anchor="start" x="232.495" y="-922.8" font-family="Times,serif" font-size="14.00">created_at :datetime</text>
<text text-anchor="start" x="232.495" y="-906" font-family="Times,serif" font-size="14.00">updated_at :datetime</text>
</g>
<!-- Course -->
<g id="node7" class="node"><title>Course</title>
<polyline fill="none" stroke="black" points="499.495,-725.2 608.505,-725.2 "/>
<path fill="none" stroke="black" d="M608.505,-725.2C614.505,-725.2 620.505,-731.2 620.505,-737.2"/>
<polyline fill="none" stroke="black" points="620.505,-737.2 620.505,-846.8 "/>
<path fill="none" stroke="black" d="M620.505,-846.8C620.505,-852.8 614.505,-858.8 608.505,-858.8"/>
<polyline fill="none" stroke="black" points="608.505,-858.8 499.495,-858.8 "/>
<path fill="none" stroke="black" d="M499.495,-858.8C493.495,-858.8 487.495,-852.8 487.495,-846.8"/>
<polyline fill="none" stroke="black" points="487.495,-846.8 487.495,-737.2 "/>
<path fill="none" stroke="black" d="M487.495,-737.2C487.495,-731.2 493.495,-725.2 499.495,-725.2"/>
<text text-anchor="middle" x="554" y="-840.8" font-family="Times,serif" font-size="14.00">Course</text>
<polyline fill="none" stroke="black" points="487.495,-834 620.505,-834 "/>
<text text-anchor="start" x="495.495" y="-816" font-family="Times,serif" font-size="14.00">name :string</text>
<text text-anchor="start" x="495.495" y="-799.2" font-family="Times,serif" font-size="14.00">description :text</text>
<text text-anchor="start" x="495.495" y="-782.4" font-family="Times,serif" font-size="14.00">image_large :string</text>
<text text-anchor="start" x="495.495" y="-765.6" font-family="Times,serif" font-size="14.00">image_small :string</text>
<text text-anchor="start" x="495.495" y="-748.8" font-family="Times,serif" font-size="14.00">created_at :datetime</text>
<text text-anchor="start" x="495.495" y="-732" font-family="Times,serif" font-size="14.00">updated_at :datetime</text>
</g>
<!-- Category&#45;&gt;Course -->
<g id="edge2" class="edge"><title>Category&#45;&gt;Course</title>
<path fill="none" stroke="#208eb2" d="M366.233,-915.798C401.452,-892.765 443.308,-865.391 478.555,-842.341"/>
<polygon fill="#208eb2" stroke="#208eb2" points="366.075,-915.901 355.243,-917.609 361.891,-918.638 357.706,-921.375 357.706,-921.375 357.706,-921.375 361.891,-918.638 360.169,-925.141 366.075,-915.901 366.075,-915.901"/>
<polygon fill="#208eb2" stroke="#208eb2" points="478.996,-842.052 489.828,-840.345 483.181,-839.315 487.365,-836.579 487.365,-836.579 487.365,-836.579 483.181,-839.315 484.902,-832.813 478.996,-842.052 478.996,-842.052"/>
</g>
<!-- ChoiceQuestion -->
<g id="node4" class="node"><title>ChoiceQuestion</title>
<polyline fill="none" stroke="black" points="362.495,-155.4 471.505,-155.4 "/>
<path fill="none" stroke="black" d="M471.505,-155.4C477.505,-155.4 483.505,-161.4 483.505,-167.4"/>
<polyline fill="none" stroke="black" points="483.505,-167.4 483.505,-226.6 "/>
<path fill="none" stroke="black" d="M483.505,-226.6C483.505,-232.6 477.505,-238.6 471.505,-238.6"/>
<polyline fill="none" stroke="black" points="471.505,-238.6 362.495,-238.6 "/>
<path fill="none" stroke="black" d="M362.495,-238.6C356.495,-238.6 350.495,-232.6 350.495,-226.6"/>
<polyline fill="none" stroke="black" points="350.495,-226.6 350.495,-167.4 "/>
<path fill="none" stroke="black" d="M350.495,-167.4C350.495,-161.4 356.495,-155.4 362.495,-155.4"/>
<text text-anchor="middle" x="417" y="-220.6" font-family="Times,serif" font-size="14.00">ChoiceQuestion</text>
<polyline fill="none" stroke="black" points="350.495,-213.8 483.505,-213.8 "/>
<text text-anchor="start" x="358.495" y="-195.8" font-family="Times,serif" font-size="14.00">description :text</text>
<text text-anchor="start" x="358.495" y="-179" font-family="Times,serif" font-size="14.00">created_at :datetime</text>
<text text-anchor="start" x="358.495" y="-162.2" font-family="Times,serif" font-size="14.00">updated_at :datetime</text>
</g>
<!-- QuizChoice -->
<g id="node10" class="node"><title>QuizChoice</title>
<polyline fill="none" stroke="black" points="362.495,-0.4 471.505,-0.4 "/>
<path fill="none" stroke="black" d="M471.505,-0.4C477.505,-0.4 483.505,-6.4 483.505,-12.4"/>
<polyline fill="none" stroke="black" points="483.505,-12.4 483.505,-71.6 "/>
<path fill="none" stroke="black" d="M483.505,-71.6C483.505,-77.6 477.505,-83.6 471.505,-83.6"/>
<polyline fill="none" stroke="black" points="471.505,-83.6 362.495,-83.6 "/>
<path fill="none" stroke="black" d="M362.495,-83.6C356.495,-83.6 350.495,-77.6 350.495,-71.6"/>
<polyline fill="none" stroke="black" points="350.495,-71.6 350.495,-12.4 "/>
<path fill="none" stroke="black" d="M350.495,-12.4C350.495,-6.4 356.495,-0.4 362.495,-0.4"/>
<text text-anchor="middle" x="417" y="-65.6" font-family="Times,serif" font-size="14.00">QuizChoice</text>
<polyline fill="none" stroke="black" points="350.495,-58.8 483.505,-58.8 "/>
<text text-anchor="start" x="358.495" y="-40.8" font-family="Times,serif" font-size="14.00">content :text</text>
<text text-anchor="start" x="358.495" y="-24" font-family="Times,serif" font-size="14.00">created_at :datetime</text>
<text text-anchor="start" x="358.495" y="-7.2" font-family="Times,serif" font-size="14.00">updated_at :datetime</text>
</g>
<!-- ChoiceQuestion&#45;&gt;QuizChoice -->
<g id="edge4" class="edge"><title>ChoiceQuestion&#45;&gt;QuizChoice</title>
<path fill="none" stroke="#1b70b9" d="M390.05,-147.352C385.014,-132.89 382.341,-116.921 386.021,-102 386.722,-99.1567 387.587,-96.2988 388.577,-93.4571"/>
<ellipse fill="none" stroke="#1b70b9" cx="391.633" cy="-151.481" rx="4.00001" ry="4.00001"/>
<polygon fill="#1b70b9" stroke="#1b70b9" points="388.68,-93.1973 396.551,-85.5615 390.524,-88.5497 392.368,-83.9021 392.368,-83.9021 392.368,-83.9021 390.524,-88.5497 388.185,-82.2426 388.68,-93.1973 388.68,-93.1973"/>
<text text-anchor="middle" x="406.99" y="-105.4" font-family="Times,serif" font-size="14.00">choices</text>
</g>
<!-- ChoiceQuestion&#45;&gt;QuizChoice -->
<g id="edge6" class="edge"><title>ChoiceQuestion&#45;&gt;QuizChoice</title>
<path fill="none" stroke="#73b7ea" d="M426.577,-147.396C428.399,-132.814 429.365,-116.771 428,-102 427.693,-98.6734 427.29,-95.2546 426.82,-91.8189"/>
<ellipse fill="none" stroke="#73b7ea" cx="426.031" cy="-151.366" rx="4.00001" ry="4.00001"/>
<ellipse fill="#73b7ea" stroke="#73b7ea" cx="426.21" cy="-87.7625" rx="4.00001" ry="4.00001"/>
<text text-anchor="middle" x="447.824" y="-105.4" font-family="Times,serif" font-size="14.00">answer</text>
</g>
<!-- Comment -->
<g id="node5" class="node"><title>Comment</title>
<polyline fill="none" stroke="black" points="815.495,-155.4 924.505,-155.4 "/>
<path fill="none" stroke="black" d="M924.505,-155.4C930.505,-155.4 936.505,-161.4 936.505,-167.4"/>
<polyline fill="none" stroke="black" points="936.505,-167.4 936.505,-226.6 "/>
<path fill="none" stroke="black" d="M936.505,-226.6C936.505,-232.6 930.505,-238.6 924.505,-238.6"/>
<polyline fill="none" stroke="black" points="924.505,-238.6 815.495,-238.6 "/>
<path fill="none" stroke="black" d="M815.495,-238.6C809.495,-238.6 803.495,-232.6 803.495,-226.6"/>
<polyline fill="none" stroke="black" points="803.495,-226.6 803.495,-167.4 "/>
<path fill="none" stroke="black" d="M803.495,-167.4C803.495,-161.4 809.495,-155.4 815.495,-155.4"/>
<text text-anchor="middle" x="870" y="-220.6" font-family="Times,serif" font-size="14.00">Comment</text>
<polyline fill="none" stroke="black" points="803.495,-213.8 936.505,-213.8 "/>
<text text-anchor="start" x="811.495" y="-195.8" font-family="Times,serif" font-size="14.00">content :text</text>
<text text-anchor="start" x="811.495" y="-179" font-family="Times,serif" font-size="14.00">created_at :datetime</text>
<text text-anchor="start" x="811.495" y="-162.2" font-family="Times,serif" font-size="14.00">updated_at :datetime</text>
</g>
<!-- Component -->
<g id="node6" class="node"><title>Component</title>
<polyline fill="none" stroke="black" points="499.495,-916 608.505,-916 "/>
<path fill="none" stroke="black" d="M608.505,-916C614.505,-916 620.505,-922 620.505,-928"/>
<polyline fill="none" stroke="black" points="620.505,-928 620.505,-1004 "/>
<path fill="none" stroke="black" d="M620.505,-1004C620.505,-1010 614.505,-1016 608.505,-1016"/>
<polyline fill="none" stroke="black" points="608.505,-1016 499.495,-1016 "/>
<path fill="none" stroke="black" d="M499.495,-1016C493.495,-1016 487.495,-1010 487.495,-1004"/>
<polyline fill="none" stroke="black" points="487.495,-1004 487.495,-928 "/>
<path fill="none" stroke="black" d="M487.495,-928C487.495,-922 493.495,-916 499.495,-916"/>
<text text-anchor="middle" x="554" y="-998" font-family="Times,serif" font-size="14.00">Component</text>
<polyline fill="none" stroke="black" points="487.495,-991.2 620.505,-991.2 "/>
<text text-anchor="start" x="495.495" y="-973.2" font-family="Times,serif" font-size="14.00">name :string</text>
<text text-anchor="start" x="495.495" y="-956.4" font-family="Times,serif" font-size="14.00">description :string</text>
<text text-anchor="start" x="495.495" y="-939.6" font-family="Times,serif" font-size="14.00">created_at :datetime</text>
<text text-anchor="start" x="495.495" y="-922.8" font-family="Times,serif" font-size="14.00">updated_at :datetime</text>
</g>
<!-- Component&#45;&gt;Course -->
<g id="edge12" class="edge"><title>Component&#45;&gt;Course</title>
<path fill="none" stroke="#5a72fb" d="M554,-905.53C554,-893.795 554,-881.329 554,-869.132"/>
<polygon fill="#5a72fb" stroke="#5a72fb" points="554,-905.712 549.5,-915.712 554,-910.712 554,-915.712 554,-915.712 554,-915.712 554,-910.712 558.5,-915.712 554,-905.712 554,-905.712"/>
<polygon fill="#5a72fb" stroke="#5a72fb" points="554,-868.971 558.5,-858.971 554,-863.971 554,-858.971 554,-858.971 554,-858.971 554,-863.971 549.5,-858.971 554,-868.971 554,-868.971"/>
</g>
<!-- Quiz -->
<g id="node9" class="node"><title>Quiz</title>
<polyline fill="none" stroke="black" points="506.481,-328 629.519,-328 "/>
<path fill="none" stroke="black" d="M629.519,-328C635.519,-328 641.519,-334 641.519,-340"/>
<polyline fill="none" stroke="black" points="641.519,-340 641.519,-416 "/>
<path fill="none" stroke="black" d="M641.519,-416C641.519,-422 635.519,-428 629.519,-428"/>
<polyline fill="none" stroke="black" points="629.519,-428 506.481,-428 "/>
<path fill="none" stroke="black" d="M506.481,-428C500.481,-428 494.481,-422 494.481,-416"/>
<polyline fill="none" stroke="black" points="494.481,-416 494.481,-340 "/>
<path fill="none" stroke="black" d="M494.481,-340C494.481,-334 500.481,-328 506.481,-328"/>
<text text-anchor="middle" x="568" y="-410" font-family="Times,serif" font-size="14.00">Quiz</text>
<polyline fill="none" stroke="black" points="494.481,-403.2 641.519,-403.2 "/>
<text text-anchor="start" x="502.481" y="-385.2" font-family="Times,serif" font-size="14.00">avg_score :integer</text>
<text text-anchor="start" x="502.481" y="-368.4" font-family="Times,serif" font-size="14.00">num_questions :integer</text>
<text text-anchor="start" x="502.481" y="-351.6" font-family="Times,serif" font-size="14.00">created_at :datetime</text>
<text text-anchor="start" x="502.481" y="-334.8" font-family="Times,serif" font-size="14.00">updated_at :datetime</text>
</g>
<!-- Component&#45;&gt;Quiz -->
<g id="edge10" class="edge"><title>Component&#45;&gt;Quiz</title>
<path fill="none" stroke="#3edba2" d="M498.524,-909.815C408.429,-813.345 249.957,-610.386 350,-464 380.451,-419.443 438.008,-398.24 486.336,-388.152"/>
<ellipse fill="none" stroke="#3edba2" cx="501.35" cy="-912.819" rx="4.00002" ry="4.00002"/>
<ellipse fill="#3edba2" stroke="#3edba2" cx="490.392" cy="-387.347" rx="4.00001" ry="4.00001"/>
</g>
<!-- Video -->
<g id="node13" class="node"><title>Video</title>
<polyline fill="none" stroke="black" points="1103.94,-311.2 1230.06,-311.2 "/>
<path fill="none" stroke="black" d="M1230.06,-311.2C1236.06,-311.2 1242.06,-317.2 1242.06,-323.2"/>
<polyline fill="none" stroke="black" points="1242.06,-323.2 1242.06,-432.8 "/>
<path fill="none" stroke="black" d="M1242.06,-432.8C1242.06,-438.8 1236.06,-444.8 1230.06,-444.8"/>
<polyline fill="none" stroke="black" points="1230.06,-444.8 1103.94,-444.8 "/>
<path fill="none" stroke="black" d="M1103.94,-444.8C1097.94,-444.8 1091.94,-438.8 1091.94,-432.8"/>
<polyline fill="none" stroke="black" points="1091.94,-432.8 1091.94,-323.2 "/>
<path fill="none" stroke="black" d="M1091.94,-323.2C1091.94,-317.2 1097.94,-311.2 1103.94,-311.2"/>
<text text-anchor="middle" x="1167" y="-426.8" font-family="Times,serif" font-size="14.00">Video</text>
<polyline fill="none" stroke="black" points="1091.94,-420 1242.06,-420 "/>
<text text-anchor="start" x="1099.94" y="-402" font-family="Times,serif" font-size="14.00">url :string</text>
<text text-anchor="start" x="1099.94" y="-385.2" font-family="Times,serif" font-size="14.00">duration :integer</text>
<text text-anchor="start" x="1099.94" y="-368.4" font-family="Times,serif" font-size="14.00">avg_rating :integer</text>
<text text-anchor="start" x="1099.94" y="-351.6" font-family="Times,serif" font-size="14.00">avg_quiz_score :integer</text>
<text text-anchor="start" x="1099.94" y="-334.8" font-family="Times,serif" font-size="14.00">created_at :datetime</text>
<text text-anchor="start" x="1099.94" y="-318" font-family="Times,serif" font-size="14.00">updated_at :datetime</text>
</g>
<!-- Component&#45;&gt;Video -->
<g id="edge8" class="edge"><title>Component&#45;&gt;Video</title>
<path fill="none" stroke="#7a47d1" d="M628.831,-955.281C822.25,-925.666 1338.27,-817.094 1548,-482 1581.06,-429.178 1374.81,-399.421 1252.62,-386.618"/>
<ellipse fill="none" stroke="#7a47d1" cx="624.653" cy="-955.911" rx="4.00001" ry="4.00001"/>
<polygon fill="#7a47d1" stroke="#7a47d1" points="1252.47,-386.603 1242.98,-381.102 1247.5,-386.091 1242.52,-385.579 1242.52,-385.579 1242.52,-385.579 1247.5,-386.091 1242.06,-390.055 1252.47,-386.603 1252.47,-386.603"/>
</g>
<!-- User -->
<g id="node12" class="node"><title>User</title>
<polyline fill="none" stroke="black" points="825.936,-501 952.064,-501 "/>
<path fill="none" stroke="black" d="M952.064,-501C958.064,-501 964.064,-507 964.064,-513"/>
<polyline fill="none" stroke="black" points="964.064,-513 964.064,-673 "/>
<path fill="none" stroke="black" d="M964.064,-673C964.064,-679 958.064,-685 952.064,-685"/>
<polyline fill="none" stroke="black" points="952.064,-685 825.936,-685 "/>
<path fill="none" stroke="black" d="M825.936,-685C819.936,-685 813.936,-679 813.936,-673"/>
<polyline fill="none" stroke="black" points="813.936,-673 813.936,-513 "/>
<path fill="none" stroke="black" d="M813.936,-513C813.936,-507 819.936,-501 825.936,-501"/>
<text text-anchor="middle" x="889" y="-667" font-family="Times,serif" font-size="14.00">User</text>
<polyline fill="none" stroke="black" points="813.936,-660.2 964.064,-660.2 "/>
<text text-anchor="start" x="821.936" y="-642.2" font-family="Times,serif" font-size="14.00">username :string</text>
<text text-anchor="start" x="821.936" y="-625.4" font-family="Times,serif" font-size="14.00">email :string</text>
<text text-anchor="start" x="821.936" y="-608.6" font-family="Times,serif" font-size="14.00">full_name :string</text>
<text text-anchor="start" x="821.936" y="-591.8" font-family="Times,serif" font-size="14.00">password_digest :string</text>
<text text-anchor="start" x="821.936" y="-575" font-family="Times,serif" font-size="14.00">remember_token :string</text>
<text text-anchor="start" x="821.936" y="-558.2" font-family="Times,serif" font-size="14.00">points :integer</text>
<text text-anchor="start" x="821.936" y="-541.4" font-family="Times,serif" font-size="14.00">avg_quiz_score :integer</text>
<text text-anchor="start" x="821.936" y="-524.6" font-family="Times,serif" font-size="14.00">created_at :datetime</text>
<text text-anchor="start" x="821.936" y="-507.8" font-family="Times,serif" font-size="14.00">updated_at :datetime</text>
</g>
<!-- Course&#45;&gt;User -->
<g id="edge14" class="edge"><title>Course&#45;&gt;User</title>
<path fill="none" stroke="#718e4b" d="M629.252,-746.747C681.415,-716.072 750.924,-675.197 804.911,-643.45"/>
<polygon fill="#718e4b" stroke="#718e4b" points="629.206,-746.774 618.305,-747.965 624.896,-749.309 620.586,-751.844 620.586,-751.844 620.586,-751.844 624.896,-749.309 622.867,-755.723 629.206,-746.774 629.206,-746.774"/>
<polygon fill="#718e4b" stroke="#718e4b" points="805.157,-643.305 816.058,-642.115 809.467,-640.77 813.777,-638.236 813.777,-638.236 813.777,-638.236 809.467,-640.77 811.496,-634.357 805.157,-643.305 805.157,-643.305"/>
</g>
<!-- FieldQuestion -->
<g id="node8" class="node"><title>FieldQuestion</title>
<polyline fill="none" stroke="black" points="513.495,-138.6 622.505,-138.6 "/>
<path fill="none" stroke="black" d="M622.505,-138.6C628.505,-138.6 634.505,-144.6 634.505,-150.6"/>
<polyline fill="none" stroke="black" points="634.505,-150.6 634.505,-243.4 "/>
<path fill="none" stroke="black" d="M634.505,-243.4C634.505,-249.4 628.505,-255.4 622.505,-255.4"/>
<polyline fill="none" stroke="black" points="622.505,-255.4 513.495,-255.4 "/>
<path fill="none" stroke="black" d="M513.495,-255.4C507.495,-255.4 501.495,-249.4 501.495,-243.4"/>
<polyline fill="none" stroke="black" points="501.495,-243.4 501.495,-150.6 "/>
<path fill="none" stroke="black" d="M501.495,-150.6C501.495,-144.6 507.495,-138.6 513.495,-138.6"/>
<text text-anchor="middle" x="568" y="-237.4" font-family="Times,serif" font-size="14.00">FieldQuestion</text>
<polyline fill="none" stroke="black" points="501.495,-230.6 634.505,-230.6 "/>
<text text-anchor="start" x="509.495" y="-212.6" font-family="Times,serif" font-size="14.00">description :text</text>
<text text-anchor="start" x="509.495" y="-195.8" font-family="Times,serif" font-size="14.00">answer :text</text>
<text text-anchor="start" x="509.495" y="-179" font-family="Times,serif" font-size="14.00">field_type :string</text>
<text text-anchor="start" x="509.495" y="-162.2" font-family="Times,serif" font-size="14.00">created_at :datetime</text>
<text text-anchor="start" x="509.495" y="-145.4" font-family="Times,serif" font-size="14.00">updated_at :datetime</text>
</g>
<!-- Quiz&#45;&gt;ChoiceQuestion -->
<g id="edge24" class="edge"><title>Quiz&#45;&gt;ChoiceQuestion</title>
<path fill="none" stroke="#9ad1b6" d="M521.004,-321.29C500.772,-297.306 477.339,-269.527 457.843,-246.417"/>
<ellipse fill="none" stroke="#9ad1b6" cx="523.76" cy="-324.556" rx="4.00002" ry="4.00002"/>
<polygon fill="#9ad1b6" stroke="#9ad1b6" points="457.841,-246.414 454.832,-235.868 454.617,-242.592 451.393,-238.77 451.393,-238.77 451.393,-238.77 454.617,-242.592 447.953,-241.672 457.841,-246.414 457.841,-246.414"/>
</g>
<!-- Quiz&#45;&gt;Comment -->
<g id="edge20" class="edge"><title>Quiz&#45;&gt;Comment</title>
<path fill="none" stroke="#341ac6" d="M634.122,-323.062C640.998,-318.378 648.025,-313.933 655,-310 712.732,-277.449 736.197,-288.424 794,-256 800.17,-252.539 806.393,-248.622 812.479,-244.498"/>
<ellipse fill="none" stroke="#341ac6" cx="630.585" cy="-325.528" rx="4.00002" ry="4.00002"/>
<polygon fill="#341ac6" stroke="#341ac6" points="812.48,-244.497 823.255,-242.457 816.578,-241.633 820.677,-238.768 820.677,-238.768 820.677,-238.768 816.578,-241.633 818.099,-235.08 812.48,-244.497 812.48,-244.497"/>
</g>
<!-- Quiz&#45;&gt;FieldQuestion -->
<g id="edge26" class="edge"><title>Quiz&#45;&gt;FieldQuestion</title>
<path fill="none" stroke="#525553" d="M568,-319.594C568,-302.447 568,-283.488 568,-265.744"/>
<ellipse fill="none" stroke="#525553" cx="568" cy="-323.614" rx="4" ry="4"/>
<polygon fill="#525553" stroke="#525553" points="568,-265.46 572.5,-255.46 568,-260.46 568,-255.46 568,-255.46 568,-255.46 568,-260.46 563.5,-255.46 568,-265.46 568,-265.46"/>
</g>
<!-- QuizScore -->
<g id="node11" class="node"><title>QuizScore</title>
<polyline fill="none" stroke="black" points="664.495,-155.4 773.505,-155.4 "/>
<path fill="none" stroke="black" d="M773.505,-155.4C779.505,-155.4 785.505,-161.4 785.505,-167.4"/>
<polyline fill="none" stroke="black" points="785.505,-167.4 785.505,-226.6 "/>
<path fill="none" stroke="black" d="M785.505,-226.6C785.505,-232.6 779.505,-238.6 773.505,-238.6"/>
<polyline fill="none" stroke="black" points="773.505,-238.6 664.495,-238.6 "/>
<path fill="none" stroke="black" d="M664.495,-238.6C658.495,-238.6 652.495,-232.6 652.495,-226.6"/>
<polyline fill="none" stroke="black" points="652.495,-226.6 652.495,-167.4 "/>
<path fill="none" stroke="black" d="M652.495,-167.4C652.495,-161.4 658.495,-155.4 664.495,-155.4"/>
<text text-anchor="middle" x="719" y="-220.6" font-family="Times,serif" font-size="14.00">QuizScore</text>
<polyline fill="none" stroke="black" points="652.495,-213.8 785.505,-213.8 "/>
<text text-anchor="start" x="660.495" y="-195.8" font-family="Times,serif" font-size="14.00">score :integer</text>
<text text-anchor="start" x="660.495" y="-179" font-family="Times,serif" font-size="14.00">created_at :datetime</text>
<text text-anchor="start" x="660.495" y="-162.2" font-family="Times,serif" font-size="14.00">updated_at :datetime</text>
</g>
<!-- Quiz&#45;&gt;QuizScore -->
<g id="edge16" class="edge"><title>Quiz&#45;&gt;QuizScore</title>
<path fill="none" stroke="#f8d402" d="M614.996,-321.29C635.228,-297.306 658.661,-269.527 678.157,-246.417"/>
<ellipse fill="none" stroke="#f8d402" cx="612.24" cy="-324.556" rx="4.00002" ry="4.00002"/>
<polygon fill="#f8d402" stroke="#f8d402" points="678.159,-246.414 688.047,-241.672 681.383,-242.592 684.607,-238.77 684.607,-238.77 684.607,-238.77 681.383,-242.592 681.168,-235.868 678.159,-246.414 678.159,-246.414"/>
</g>
<!-- Quiz&#45;&gt;User -->
<g id="edge22" class="edge"><title>Quiz&#45;&gt;User</title>
<path fill="none" stroke="#c9b1c0" d="M580.179,-437.85C585.825,-453.757 594.03,-469.898 605.917,-482 658.963,-536.004 741.545,-564.032 803.851,-578.234"/>
<polygon fill="#c9b1c0" stroke="#c9b1c0" points="580.073,-437.525 581.264,-426.624 578.528,-432.77 576.984,-428.014 576.984,-428.014 576.984,-428.014 578.528,-432.77 572.704,-429.405 580.073,-437.525 580.073,-437.525"/>
<polygon fill="#c9b1c0" stroke="#c9b1c0" points="803.903,-578.246 812.701,-584.792 808.786,-579.321 813.669,-580.397 813.669,-580.397 813.669,-580.397 808.786,-579.321 814.637,-576.002 803.903,-578.246 803.903,-578.246"/>
<text text-anchor="middle" x="655.542" y="-467.4" font-family="Times,serif" font-size="14.00">users_commented</text>
</g>
<!-- Quiz&#45;&gt;User -->
<g id="edge18" class="edge"><title>Quiz&#45;&gt;User</title>
<path fill="none" stroke="#553221" d="M634.486,-433.776C641.219,-438.221 648.117,-442.385 655,-446 678.145,-458.156 688.522,-450.652 711,-464 720.977,-469.925 720.909,-474.678 729.91,-482 753.548,-501.227 780.418,-520.644 805.257,-537.701"/>
<polygon fill="#553221" stroke="#553221" points="634.314,-433.658 628.598,-424.299 630.186,-430.836 626.059,-428.014 626.059,-428.014 626.059,-428.014 630.186,-430.836 623.519,-431.729 634.314,-433.658 634.314,-433.658"/>
<polygon fill="#553221" stroke="#553221" points="805.336,-537.755 811.059,-547.109 809.465,-540.573 813.595,-543.392 813.595,-543.392 813.595,-543.392 809.465,-540.573 816.132,-539.675 805.336,-537.755 805.336,-537.755"/>
<text text-anchor="middle" x="762.045" y="-467.4" font-family="Times,serif" font-size="14.00">users_taken</text>
</g>
<!-- User&#45;&gt;Badge -->
<g id="edge38" class="edge"><title>User&#45;&gt;Badge</title>
<path fill="none" stroke="#5b04a7" d="M822.057,-494.113C814.719,-483.869 807.272,-473.671 800,-464 797.292,-460.399 794.495,-456.736 791.647,-453.054"/>
<ellipse fill="none" stroke="#5b04a7" cx="824.537" cy="-497.591" rx="4.00002" ry="4.00002"/>
<polygon fill="#5b04a7" stroke="#5b04a7" points="791.498,-452.863 788.896,-442.21 788.423,-448.92 785.347,-444.978 785.347,-444.978 785.347,-444.978 788.423,-448.92 781.799,-447.746 791.498,-452.863 791.498,-452.863"/>
</g>
<!-- User&#45;&gt;Comment -->
<g id="edge40" class="edge"><title>User&#45;&gt;Comment</title>
<path fill="none" stroke="#58216d" d="M878.75,-492.79C878.478,-489.149 878.227,-485.543 878,-482 872.795,-400.673 870.976,-306.03 870.341,-249.132"/>
<ellipse fill="none" stroke="#58216d" cx="879.063" cy="-496.816" rx="4" ry="4"/>
<polygon fill="#58216d" stroke="#58216d" points="870.339,-248.958 874.735,-238.912 870.287,-243.959 870.235,-238.959 870.235,-238.959 870.235,-238.959 870.287,-243.959 865.736,-239.005 870.339,-248.958 870.339,-248.958"/>
</g>
<!-- User&#45;&gt;Quiz -->
<g id="edge36" class="edge"><title>User&#45;&gt;Quiz</title>
<path fill="none" stroke="#8fcdd9" d="M803.61,-579.282C702.992,-562.347 544.987,-528.971 509.703,-482 499.232,-468.061 502.106,-452.047 510.629,-436.865"/>
<polygon fill="#8fcdd9" stroke="#8fcdd9" points="803.901,-579.331 813.029,-585.408 808.834,-580.15 813.766,-580.969 813.766,-580.969 813.766,-580.969 808.834,-580.15 814.503,-576.53 803.901,-579.331 803.901,-579.331"/>
<polygon fill="#8fcdd9" stroke="#8fcdd9" points="510.873,-436.481 520.038,-430.46 513.557,-432.262 516.242,-428.044 516.242,-428.044 516.242,-428.044 513.557,-432.262 512.445,-425.628 510.873,-436.481 510.873,-436.481"/>
<text text-anchor="middle" x="548.648" y="-467.4" font-family="Times,serif" font-size="14.00">quizzes_taken</text>
</g>
<!-- User&#45;&gt;Quiz -->
<g id="edge44" class="edge"><title>User&#45;&gt;Quiz</title>
<path fill="none" stroke="#99c5cf" d="M803.65,-586.816C669.31,-576.678 418.173,-549.049 363.71,-482 324.066,-433.194 411.57,-405.363 484.131,-391.229"/>
<polygon fill="#99c5cf" stroke="#99c5cf" points="803.933,-586.837 813.575,-592.061 808.919,-587.205 813.906,-587.573 813.906,-587.573 813.906,-587.573 808.919,-587.205 814.237,-583.085 803.933,-586.837 803.933,-586.837"/>
<polygon fill="#99c5cf" stroke="#99c5cf" points="484.428,-391.173 495.087,-393.747 489.342,-390.249 494.255,-389.325 494.255,-389.325 494.255,-389.325 489.342,-390.249 493.424,-384.902 484.428,-391.173 484.428,-391.173"/>
<text text-anchor="middle" x="430.645" y="-467.4" font-family="Times,serif" font-size="14.00">quizzes_commented_on</text>
</g>
<!-- User&#45;&gt;QuizScore -->
<g id="edge34" class="edge"><title>User&#45;&gt;QuizScore</title>
<path fill="none" stroke="#cad49b" d="M869.372,-492.669C856.05,-437.022 835.436,-367.473 806,-310 794.559,-287.661 778.434,-265.354 763.171,-246.595"/>
<ellipse fill="none" stroke="#cad49b" cx="870.366" cy="-496.883" rx="4.00001" ry="4.00001"/>
<polygon fill="#cad49b" stroke="#cad49b" points="763.079,-246.484 760.163,-235.912 759.888,-242.634 756.698,-238.784 756.698,-238.784 756.698,-238.784 759.888,-242.634 753.233,-241.655 763.079,-246.484 763.079,-246.484"/>
</g>
<!-- User&#45;&gt;Video -->
<g id="edge28" class="edge"><title>User&#45;&gt;Video</title>
<path fill="none" stroke="#203690" d="M972.091,-577.069C1029.07,-562.481 1101.89,-534.479 1145,-482 1151.55,-474.023 1156.29,-464.555 1159.68,-454.642"/>
<ellipse fill="none" stroke="#203690" cx="968.043" cy="-578.075" rx="4.00001" ry="4.00001"/>
<polygon fill="#203690" stroke="#203690" points="1159.69,-454.618 1166.86,-446.32 1161.12,-449.826 1162.54,-445.034 1162.54,-445.034 1162.54,-445.034 1161.12,-449.826 1158.23,-443.749 1159.69,-454.618 1159.69,-454.618"/>
<text text-anchor="middle" x="1191.93" y="-467.4" font-family="Times,serif" font-size="14.00">videos_made</text>
</g>
<!-- User&#45;&gt;Video -->
<g id="edge32" class="edge"><title>User&#45;&gt;Video</title>
<path fill="none" stroke="#b6ed6b" d="M974.194,-576.491C1065.44,-557.943 1201.32,-524.062 1232,-482 1238.34,-473.315 1239.59,-464.017 1237.53,-454.693"/>
<polygon fill="#b6ed6b" stroke="#b6ed6b" points="973.932,-576.544 963.242,-574.1 969.03,-577.528 964.128,-578.512 964.128,-578.512 964.128,-578.512 969.03,-577.528 965.014,-582.924 973.932,-576.544 973.932,-576.544"/>
<polygon fill="#b6ed6b" stroke="#b6ed6b" points="1237.46,-454.468 1238.53,-443.554 1235.86,-449.729 1234.27,-444.991 1234.27,-444.991 1234.27,-444.991 1235.86,-449.729 1230,-446.427 1237.46,-454.468 1237.46,-454.468"/>
<text text-anchor="middle" x="1279.99" y="-467.4" font-family="Times,serif" font-size="14.00">videos_viewed</text>
</g>
<!-- User&#45;&gt;Video -->
<g id="edge42" class="edge"><title>User&#45;&gt;Video</title>
<path fill="none" stroke="#56a321" d="M974.568,-582.765C1088.98,-568.451 1282.39,-536.699 1325,-482 1353.27,-445.706 1302.92,-418.225 1251.72,-400.815"/>
<polygon fill="#56a321" stroke="#56a321" points="974.356,-582.791 963.881,-579.547 969.393,-583.402 964.431,-584.014 964.431,-584.014 964.431,-584.014 969.393,-583.402 964.981,-588.48 974.356,-582.791 974.356,-582.791"/>
<polygon fill="#56a321" stroke="#56a321" points="1251.68,-400.8 1243.58,-393.406 1246.93,-399.241 1242.18,-397.682 1242.18,-397.682 1242.18,-397.682 1246.93,-399.241 1240.77,-401.958 1251.68,-400.8 1251.68,-400.8"/>
<text text-anchor="middle" x="1396.93" y="-467.4" font-family="Times,serif" font-size="14.00">videos_commented_on</text>
</g>
<!-- User&#45;&gt;Video -->
<g id="edge48" class="edge"><title>User&#45;&gt;Video</title>
<path fill="none" stroke="#88e187" d="M974.472,-588.555C1119.42,-580.721 1403.73,-556.074 1465,-482 1526.68,-407.425 1361.04,-386.73 1252.64,-381.062"/>
<polygon fill="#88e187" stroke="#88e187" points="974.268,-588.565 964.045,-584.596 969.275,-588.828 964.281,-589.09 964.281,-589.09 964.281,-589.09 969.275,-588.828 964.518,-593.584 974.268,-588.565 974.268,-588.565"/>
<polygon fill="#88e187" stroke="#88e187" points="1252.32,-381.047 1242.55,-376.065 1247.33,-380.803 1242.33,-380.559 1242.33,-380.559 1242.33,-380.559 1247.33,-380.803 1242.11,-385.054 1252.32,-381.047 1252.32,-381.047"/>
<text text-anchor="middle" x="1508.77" y="-467.4" font-family="Times,serif" font-size="14.00">videos_rated</text>
</g>
<!-- VideoRating -->
<g id="node14" class="node"><title>VideoRating</title>
<polyline fill="none" stroke="black" points="1017.49,-155.4 1126.51,-155.4 "/>
<path fill="none" stroke="black" d="M1126.51,-155.4C1132.51,-155.4 1138.51,-161.4 1138.51,-167.4"/>
<polyline fill="none" stroke="black" points="1138.51,-167.4 1138.51,-226.6 "/>
<path fill="none" stroke="black" d="M1138.51,-226.6C1138.51,-232.6 1132.51,-238.6 1126.51,-238.6"/>
<polyline fill="none" stroke="black" points="1126.51,-238.6 1017.49,-238.6 "/>
<path fill="none" stroke="black" d="M1017.49,-238.6C1011.49,-238.6 1005.49,-232.6 1005.49,-226.6"/>
<polyline fill="none" stroke="black" points="1005.49,-226.6 1005.49,-167.4 "/>
<path fill="none" stroke="black" d="M1005.49,-167.4C1005.49,-161.4 1011.49,-155.4 1017.49,-155.4"/>
<text text-anchor="middle" x="1072" y="-220.6" font-family="Times,serif" font-size="14.00">VideoRating</text>
<polyline fill="none" stroke="black" points="1005.49,-213.8 1138.51,-213.8 "/>
<text text-anchor="start" x="1013.49" y="-195.8" font-family="Times,serif" font-size="14.00">value :integer</text>
<text text-anchor="start" x="1013.49" y="-179" font-family="Times,serif" font-size="14.00">created_at :datetime</text>
<text text-anchor="start" x="1013.49" y="-162.2" font-family="Times,serif" font-size="14.00">updated_at :datetime</text>
</g>
<!-- User&#45;&gt;VideoRating -->
<g id="edge46" class="edge"><title>User&#45;&gt;VideoRating</title>
<path fill="none" stroke="#292c2a" d="M897.834,-493.001C899.998,-483.062 902.68,-473.239 906,-464 935.558,-381.747 993.338,-298.035 1032.31,-247.049"/>
<ellipse fill="none" stroke="#292c2a" cx="897.005" cy="-497.067" rx="4.00001" ry="4.00001"/>
<polygon fill="#292c2a" stroke="#292c2a" points="1032.53,-246.763 1042.2,-241.592 1035.59,-242.804 1038.64,-238.844 1038.64,-238.844 1038.64,-238.844 1035.59,-242.804 1035.07,-236.096 1032.53,-246.763 1032.53,-246.763"/>
</g>
<!-- VideoView -->
<g id="node15" class="node"><title>VideoView</title>
<polyline fill="none" stroke="black" points="1339.49,-163.8 1448.51,-163.8 "/>
<path fill="none" stroke="black" d="M1448.51,-163.8C1454.51,-163.8 1460.51,-169.8 1460.51,-175.8"/>
<polyline fill="none" stroke="black" points="1460.51,-175.8 1460.51,-218.2 "/>
<path fill="none" stroke="black" d="M1460.51,-218.2C1460.51,-224.2 1454.51,-230.2 1448.51,-230.2"/>
<polyline fill="none" stroke="black" points="1448.51,-230.2 1339.49,-230.2 "/>
<path fill="none" stroke="black" d="M1339.49,-230.2C1333.49,-230.2 1327.49,-224.2 1327.49,-218.2"/>
<polyline fill="none" stroke="black" points="1327.49,-218.2 1327.49,-175.8 "/>
<path fill="none" stroke="black" d="M1327.49,-175.8C1327.49,-169.8 1333.49,-163.8 1339.49,-163.8"/>
<text text-anchor="middle" x="1394" y="-212.2" font-family="Times,serif" font-size="14.00">VideoView</text>
<polyline fill="none" stroke="black" points="1327.49,-205.4 1460.51,-205.4 "/>
<text text-anchor="start" x="1335.49" y="-187.4" font-family="Times,serif" font-size="14.00">created_at :datetime</text>
<text text-anchor="start" x="1335.49" y="-170.6" font-family="Times,serif" font-size="14.00">updated_at :datetime</text>
</g>
<!-- User&#45;&gt;VideoView -->
<g id="edge30" class="edge"><title>User&#45;&gt;VideoView</title>
<path fill="none" stroke="#94e2a4" d="M972.762,-590.895C1133.36,-586.812 1475.18,-567.98 1548,-482 1613.57,-404.575 1509.58,-294.764 1442.92,-236.996"/>
<ellipse fill="none" stroke="#94e2a4" cx="968.317" cy="-591.003" rx="4" ry="4"/>
<polygon fill="#94e2a4" stroke="#94e2a4" points="1442.59,-236.714 1437.91,-226.795 1438.79,-233.465 1434.99,-230.215 1434.99,-230.215 1434.99,-230.215 1438.79,-233.465 1432.06,-233.635 1442.59,-236.714 1442.59,-236.714"/>
</g>
<!-- Video&#45;&gt;Comment -->
<g id="edge50" class="edge"><title>Video&#45;&gt;Comment</title>
<path fill="none" stroke="#a1b2e2" d="M1084.58,-327.325C1040.96,-301.034 987.776,-268.983 945.271,-243.366"/>
<ellipse fill="none" stroke="#a1b2e2" cx="1088.24" cy="-329.535" rx="4.00002" ry="4.00002"/>
<polygon fill="#a1b2e2" stroke="#a1b2e2" points="945.21,-243.329 938.968,-234.313 940.928,-240.748 936.645,-238.167 936.645,-238.167 936.645,-238.167 940.928,-240.748 934.322,-242.021 945.21,-243.329 945.21,-243.329"/>
</g>
<!-- Video&#45;&gt;User -->
<g id="edge52" class="edge"><title>Video&#45;&gt;User</title>
<path fill="none" stroke="#ecf74c" d="M1081.78,-388.387C1029.08,-398.567 963.89,-419.784 922.917,-464 915.5,-472.004 909.667,-481.441 905.086,-491.504"/>
<polygon fill="#ecf74c" stroke="#ecf74c" points="1081.97,-388.353 1092.62,-390.98 1086.89,-387.453 1091.81,-386.553 1091.81,-386.553 1091.81,-386.553 1086.89,-387.453 1091,-382.126 1081.97,-388.353 1081.97,-388.353"/>
<polygon fill="#ecf74c" stroke="#ecf74c" points="905.026,-491.65 897.06,-499.186 903.124,-496.274 901.222,-500.898 901.222,-500.898 901.222,-500.898 903.124,-496.274 905.383,-502.61 905.026,-491.65 905.026,-491.65"/>
<text text-anchor="middle" x="972.542" y="-467.4" font-family="Times,serif" font-size="14.00">users_commented</text>
</g>
<!-- Video&#45;&gt;User -->
<g id="edge56" class="edge"><title>Video&#45;&gt;User</title>
<path fill="none" stroke="#35210e" d="M1083.49,-437.394C1071.32,-446.191 1059,-455.249 1047.46,-464 1022.78,-482.718 996.432,-503.613 972.453,-523.004"/>
<polygon fill="#35210e" stroke="#35210e" points="1083.76,-437.195 1094.51,-435.005 1087.82,-434.274 1091.88,-431.353 1091.88,-431.353 1091.88,-431.353 1087.82,-434.274 1089.25,-427.7 1083.76,-437.195 1083.76,-437.195"/>
<polygon fill="#35210e" stroke="#35210e" points="972.186,-523.22 961.584,-526.021 968.302,-526.369 964.418,-529.517 964.418,-529.517 964.418,-529.517 968.302,-526.369 967.251,-533.013 972.186,-523.22 972.186,-523.22"/>
<text text-anchor="middle" x="1068.77" y="-467.4" font-family="Times,serif" font-size="14.00">viewers</text>
</g>
<!-- Video&#45;&gt;User -->
<g id="edge60" class="edge"><title>Video&#45;&gt;User</title>
<path fill="none" stroke="#bbd535" d="M1118.62,-453.033C1110.11,-463.418 1100.81,-473.448 1091,-482 1056.3,-512.24 1011.9,-537.549 973.569,-556.236"/>
<polygon fill="#bbd535" stroke="#bbd535" points="1118.75,-452.872 1128.49,-447.841 1121.86,-448.957 1124.97,-445.042 1124.97,-445.042 1124.97,-445.042 1121.86,-448.957 1121.45,-442.243 1118.75,-452.872 1118.75,-452.872"/>
<polygon fill="#bbd535" stroke="#bbd535" points="973.49,-556.274 962.527,-556.545 968.982,-558.437 964.475,-560.601 964.475,-560.601 964.475,-560.601 968.982,-558.437 966.422,-564.658 973.49,-556.274 973.49,-556.274"/>
<text text-anchor="middle" x="1123.54" y="-467.4" font-family="Times,serif" font-size="14.00">raters</text>
</g>
<!-- Video&#45;&gt;VideoRating -->
<g id="edge58" class="edge"><title>Video&#45;&gt;VideoRating</title>
<path fill="none" stroke="#1bebe3" d="M1128.23,-303.949C1118.18,-285.02 1107.6,-265.074 1098.35,-247.658"/>
<ellipse fill="none" stroke="#1bebe3" cx="1130.16" cy="-307.576" rx="4.00002" ry="4.00002"/>
<polygon fill="#1bebe3" stroke="#1bebe3" points="1098.34,-247.632 1097.63,-236.69 1096,-243.216 1093.65,-238.799 1093.65,-238.799 1093.65,-238.799 1096,-243.216 1089.68,-240.909 1098.34,-247.632 1098.34,-247.632"/>
<text text-anchor="middle" x="1138.05" y="-277.4" font-family="Times,serif" font-size="14.00">ratings</text>
</g>
<!-- Video&#45;&gt;VideoView -->
<g id="edge54" class="edge"><title>Video&#45;&gt;VideoView</title>
<path fill="none" stroke="#25cd13" d="M1248.82,-312.481C1281.01,-287.102 1316.88,-258.809 1344.92,-236.7"/>
<ellipse fill="none" stroke="#25cd13" cx="1245.41" cy="-315.167" rx="4.00002" ry="4.00002"/>
<polygon fill="#25cd13" stroke="#25cd13" points="1345.13,-236.534 1355.77,-233.875 1349.06,-233.438 1352.99,-230.342 1352.99,-230.342 1352.99,-230.342 1349.06,-233.438 1350.2,-226.808 1345.13,-236.534 1345.13,-236.534"/>
<text text-anchor="middle" x="1310.33" y="-277.4" font-family="Times,serif" font-size="14.00">views</text>
</g>
</g>
</svg>
