<?xml version="1.0" encoding="UTF-8" standalone="no"?>
<!DOCTYPE svg PUBLIC "-//W3C//DTD SVG 1.1//EN"
 "http://www.w3.org/Graphics/SVG/1.1/DTD/svg11.dtd">
<!-- Generated by graphviz version 2.28.0 (20120602.1732)
 -->
<!-- Title: models_diagram Pages: 1 -->
<svg width="1550pt" height="512pt"
 viewBox="0.00 0.00 1549.57 512.00" xmlns="http://www.w3.org/2000/svg" xmlns:xlink="http://www.w3.org/1999/xlink">
<g id="graph1" class="graph" transform="scale(1 1) rotate(0) translate(4 508)">
<title>models_diagram</title>
<polygon fill="white" stroke="white" points="-4,5 -4,-508 1546.57,-508 1546.57,5 -4,5"/>
<!-- _diagram_info -->
<g id="node1" class="node"><title>_diagram_info</title>
<text text-anchor="start" x="7.31226" y="-487" font-family="Times,serif" font-size="13.00">Models diagram</text>
<text text-anchor="start" x="7.31226" y="-471.4" font-family="Times,serif" font-size="13.00">Date: Jun 02 2012 &#45; 13:45</text>
<text text-anchor="start" x="7.31226" y="-455.8" font-family="Times,serif" font-size="13.00">Migration version: 20120602165820</text>
<text text-anchor="start" x="7.31226" y="-440.2" font-family="Times,serif" font-size="13.00">Generated by RailRoady 1.0.7</text>
<text text-anchor="start" x="7.31226" y="-424.6" font-family="Times,serif" font-size="13.00">http://railroady.prestonlee.com</text>
</g>
<!-- Badge -->
<g id="node2" class="node"><title>Badge</title>
<ellipse fill="none" stroke="black" cx="742" cy="-198" rx="35.5596" ry="18"/>
<text text-anchor="middle" x="742" y="-192.4" font-family="Times,serif" font-size="14.00">Badge</text>
</g>
<!-- Category -->
<g id="node3" class="node"><title>Category</title>
<ellipse fill="none" stroke="black" cx="271" cy="-461" rx="46.1519" ry="18"/>
<text text-anchor="middle" x="271" y="-455.4" font-family="Times,serif" font-size="14.00">Category</text>
</g>
<!-- Course -->
<g id="node7" class="node"><title>Course</title>
<ellipse fill="none" stroke="black" cx="511" cy="-362" rx="38.0929" ry="18"/>
<text text-anchor="middle" x="511" y="-356.4" font-family="Times,serif" font-size="14.00">Course</text>
</g>
<!-- Category&#45;&gt;Course -->
<g id="edge2" class="edge"><title>Category&#45;&gt;Course</title>
<path fill="none" stroke="#6eb23a" d="M311.159,-443.769C356.353,-425.503 429.205,-396.059 473.346,-378.219"/>
<polygon fill="#6eb23a" stroke="#6eb23a" points="311.156,-443.77 300.198,-443.345 306.52,-445.644 301.884,-447.518 301.884,-447.518 301.884,-447.518 306.52,-445.644 303.571,-451.69 311.156,-443.77 311.156,-443.77"/>
<polygon fill="#6eb23a" stroke="#6eb23a" points="473.572,-378.127 484.53,-378.552 478.208,-376.254 482.844,-374.38 482.844,-374.38 482.844,-374.38 478.208,-376.254 481.157,-370.208 473.572,-378.127 473.572,-378.127"/>
</g>
<!-- ChoiceQuestion -->
<g id="node4" class="node"><title>ChoiceQuestion</title>
<ellipse fill="none" stroke="black" cx="432" cy="-108" rx="72.8907" ry="18"/>
<text text-anchor="middle" x="432" y="-102.4" font-family="Times,serif" font-size="14.00">ChoiceQuestion</text>
</g>
<!-- QuizChoice -->
<g id="node10" class="node"><title>QuizChoice</title>
<ellipse fill="none" stroke="black" cx="432" cy="-18" rx="57.2427" ry="18"/>
<text text-anchor="middle" x="432" y="-12.4" font-family="Times,serif" font-size="14.00">QuizChoice</text>
</g>
<!-- ChoiceQuestion&#45;&gt;QuizChoice -->
<g id="edge4" class="edge"><title>ChoiceQuestion&#45;&gt;QuizChoice</title>
<path fill="none" stroke="#52ece8" d="M407.805,-84.1227C405.041,-80.3507 402.638,-76.2683 401.021,-72 398.185,-64.5192 398.185,-61.4808 401.021,-54 402.467,-50.1822 404.542,-46.5132 406.942,-43.082"/>
<ellipse fill="none" stroke="#52ece8" cx="410.542" cy="-87.4585" rx="4.00002" ry="4.00002"/>
<polygon fill="#52ece8" stroke="#52ece8" points="407.116,-42.8675 416.904,-37.9234 410.26,-38.9803 413.405,-35.0931 413.405,-35.0931 413.405,-35.0931 410.26,-38.9803 409.907,-32.2627 407.116,-42.8675 407.116,-42.8675"/>
<text text-anchor="middle" x="421.99" y="-57.4" font-family="Times,serif" font-size="14.00">choices</text>
</g>
<!-- ChoiceQuestion&#45;&gt;QuizChoice -->
<g id="edge6" class="edge"><title>ChoiceQuestion&#45;&gt;QuizChoice</title>
<path fill="none" stroke="#fc8e22" d="M440.896,-81.8685C441.763,-78.5843 442.503,-75.2364 443,-72 444.213,-64.0925 444.213,-61.9075 443,-54 442.503,-50.7636 441.763,-47.4157 440.896,-44.1315"/>
<ellipse fill="none" stroke="#fc8e22" cx="439.684" cy="-85.9653" rx="4.00001" ry="4.00001"/>
<ellipse fill="#fc8e22" stroke="#fc8e22" cx="439.684" cy="-40.0347" rx="4.00001" ry="4.00001"/>
<text text-anchor="middle" x="462.824" y="-57.4" font-family="Times,serif" font-size="14.00">answer</text>
</g>
<!-- Comment -->
<g id="node5" class="node"><title>Comment</title>
<ellipse fill="none" stroke="black" cx="844" cy="-108" rx="49.1903" ry="18"/>
<text text-anchor="middle" x="844" y="-102.4" font-family="Times,serif" font-size="14.00">Comment</text>
</g>
<!-- Component -->
<g id="node6" class="node"><title>Component</title>
<ellipse fill="none" stroke="black" cx="511" cy="-461" rx="56.1511" ry="18"/>
<text text-anchor="middle" x="511" y="-455.4" font-family="Times,serif" font-size="14.00">Component</text>
</g>
<!-- Component&#45;&gt;Course -->
<g id="edge12" class="edge"><title>Component&#45;&gt;Course</title>
<path fill="none" stroke="#05b88e" d="M511,-432.327C511,-419.208 511,-403.579 511,-390.484"/>
<polygon fill="#05b88e" stroke="#05b88e" points="511,-432.658 506.5,-442.658 511,-437.658 511,-442.658 511,-442.658 511,-442.658 511,-437.658 515.5,-442.658 511,-432.658 511,-432.658"/>
<polygon fill="#05b88e" stroke="#05b88e" points="511,-390.192 515.5,-380.191 511,-385.192 511,-380.192 511,-380.192 511,-380.192 511,-385.192 506.5,-380.192 511,-390.192 511,-390.192"/>
</g>
<!-- Quiz -->
<g id="node9" class="node"><title>Quiz</title>
<ellipse fill="none" stroke="black" cx="589" cy="-198" rx="29.216" ry="18"/>
<text text-anchor="middle" x="589" y="-192.4" font-family="Times,serif" font-size="14.00">Quiz</text>
</g>
<!-- Component&#45;&gt;Quiz -->
<g id="edge10" class="edge"><title>Component&#45;&gt;Quiz</title>
<path fill="none" stroke="#2c2ffb" d="M477.472,-440.736C412.021,-400.797 278.931,-306.636 342,-234 368.632,-203.328 488.848,-198.813 551.206,-198.591"/>
<ellipse fill="none" stroke="#2c2ffb" cx="480.92" cy="-442.816" rx="4.00002" ry="4.00002"/>
<ellipse fill="#2c2ffb" stroke="#2c2ffb" cx="555.242" cy="-198.588" rx="4" ry="4"/>
</g>
<!-- Video -->
<g id="node13" class="node"><title>Video</title>
<ellipse fill="none" stroke="black" cx="1147" cy="-198" rx="34.0921" ry="18"/>
<text text-anchor="middle" x="1147" y="-192.4" font-family="Times,serif" font-size="14.00">Video</text>
</g>
<!-- Component&#45;&gt;Video -->
<g id="edge8" class="edge"><title>Component&#45;&gt;Video</title>
<path fill="none" stroke="#d65792" d="M574.366,-457.059C777.073,-446.202 1403.51,-400.941 1525,-252 1567.91,-199.394 1300,-197.045 1191.31,-198.204"/>
<ellipse fill="none" stroke="#d65792" cx="570.178" cy="-457.28" rx="4" ry="4"/>
<polygon fill="#d65792" stroke="#d65792" points="1191.31,-198.204 1181.25,-193.825 1186.31,-198.264 1181.31,-198.325 1181.31,-198.325 1181.31,-198.325 1186.31,-198.264 1181.36,-202.825 1191.31,-198.204 1191.31,-198.204"/>
</g>
<!-- User -->
<g id="node12" class="node"><title>User</title>
<ellipse fill="none" stroke="black" cx="869" cy="-288" rx="28.9087" ry="18"/>
<text text-anchor="middle" x="869" y="-282.4" font-family="Times,serif" font-size="14.00">User</text>
</g>
<!-- Course&#45;&gt;User -->
<g id="edge14" class="edge"><title>Course&#45;&gt;User</title>
<path fill="none" stroke="#ad11db" d="M555.409,-352.069C626.685,-337.734 765.337,-309.848 831.766,-296.488"/>
<polygon fill="#ad11db" stroke="#ad11db" points="555.13,-352.125 544.439,-349.685 550.228,-353.11 545.327,-354.096 545.327,-354.096 545.327,-354.096 550.228,-353.11 546.214,-358.508 555.13,-352.125 555.13,-352.125"/>
<polygon fill="#ad11db" stroke="#ad11db" points="831.983,-296.445 842.674,-298.885 836.885,-295.459 841.786,-294.473 841.786,-294.473 841.786,-294.473 836.885,-295.459 840.899,-290.061 831.983,-296.445 831.983,-296.445"/>
</g>
<!-- FieldQuestion -->
<g id="node8" class="node"><title>FieldQuestion</title>
<ellipse fill="none" stroke="black" cx="589" cy="-108" rx="65.1387" ry="18"/>
<text text-anchor="middle" x="589" y="-102.4" font-family="Times,serif" font-size="14.00">FieldQuestion</text>
</g>
<!-- Quiz&#45;&gt;ChoiceQuestion -->
<g id="edge24" class="edge"><title>Quiz&#45;&gt;ChoiceQuestion</title>
<path fill="none" stroke="#610ae2" d="M560.561,-181.06C534.924,-166.69 497.063,-145.468 469.062,-129.774"/>
<ellipse fill="none" stroke="#610ae2" cx="564.337" cy="-183.176" rx="4.00002" ry="4.00002"/>
<polygon fill="#610ae2" stroke="#610ae2" points="468.7,-129.571 462.177,-120.756 464.338,-127.126 459.977,-124.681 459.977,-124.681 459.977,-124.681 464.338,-127.126 457.776,-128.607 468.7,-129.571 468.7,-129.571"/>
</g>
<!-- Quiz&#45;&gt;Comment -->
<g id="edge20" class="edge"><title>Quiz&#45;&gt;Comment</title>
<path fill="none" stroke="#654b5a" d="M621.569,-185.761C666.795,-170.153 748.772,-141.863 799.578,-124.33"/>
<ellipse fill="none" stroke="#654b5a" cx="617.696" cy="-187.097" rx="4.00001" ry="4.00001"/>
<polygon fill="#654b5a" stroke="#654b5a" points="799.851,-124.236 810.772,-125.227 804.577,-122.605 809.304,-120.974 809.304,-120.974 809.304,-120.974 804.577,-122.605 807.836,-116.72 799.851,-124.236 799.851,-124.236"/>
</g>
<!-- Quiz&#45;&gt;FieldQuestion -->
<g id="edge26" class="edge"><title>Quiz&#45;&gt;FieldQuestion</title>
<path fill="none" stroke="#d13f85" d="M589,-171.462C589,-160.397 589,-147.428 589,-136.184"/>
<ellipse fill="none" stroke="#d13f85" cx="589" cy="-175.614" rx="4" ry="4"/>
<polygon fill="#d13f85" stroke="#d13f85" points="589,-136.05 593.5,-126.05 589,-131.05 589,-126.05 589,-126.05 589,-126.05 589,-131.05 584.5,-126.05 589,-136.05 589,-136.05"/>
</g>
<!-- QuizScore -->
<g id="node11" class="node"><title>QuizScore</title>
<ellipse fill="none" stroke="black" cx="725" cy="-108" rx="51.1958" ry="18"/>
<text text-anchor="middle" x="725" y="-102.4" font-family="Times,serif" font-size="14.00">QuizScore</text>
</g>
<!-- Quiz&#45;&gt;QuizScore -->
<g id="edge16" class="edge"><title>Quiz&#45;&gt;QuizScore</title>
<path fill="none" stroke="#981445" d="M615.499,-179.854C637.629,-165.534 669.254,-145.071 692.833,-129.814"/>
<ellipse fill="none" stroke="#981445" cx="611.844" cy="-182.219" rx="4.00002" ry="4.00002"/>
<polygon fill="#981445" stroke="#981445" points="693.043,-129.678 703.884,-128.023 697.241,-126.961 701.439,-124.245 701.439,-124.245 701.439,-124.245 697.241,-126.961 698.995,-120.467 693.043,-129.678 693.043,-129.678"/>
</g>
<!-- Quiz&#45;&gt;User -->
<g id="edge22" class="edge"><title>Quiz&#45;&gt;User</title>
<path fill="none" stroke="#f490bf" d="M580.225,-225.893C578.919,-235.166 579.708,-244.976 585.917,-252 601.801,-269.969 755.75,-280.785 829.712,-284.984"/>
<polygon fill="#f490bf" stroke="#f490bf" points="580.288,-225.601 586.808,-216.784 581.349,-220.715 582.41,-215.829 582.41,-215.829 582.41,-215.829 581.349,-220.715 578.013,-214.874 580.288,-225.601 580.288,-225.601"/>
<polygon fill="#f490bf" stroke="#f490bf" points="830.033,-285.002 839.769,-290.049 835.026,-285.279 840.018,-285.556 840.018,-285.556 840.018,-285.556 835.026,-285.279 840.267,-281.063 830.033,-285.002 830.033,-285.002"/>
<text text-anchor="middle" x="635.542" y="-237.4" font-family="Times,serif" font-size="14.00">users_commented</text>
</g>
<!-- Quiz&#45;&gt;User -->
<g id="edge18" class="edge"><title>Quiz&#45;&gt;User</title>
<path fill="none" stroke="#c59fac" d="M625.789,-208.168C645.809,-213.995 670.583,-222.602 691,-234 702.004,-240.143 701.585,-246.471 712.91,-252 750.405,-270.305 797.651,-279.179 830.289,-283.387"/>
<polygon fill="#c59fac" stroke="#c59fac" points="625.723,-208.15 617.307,-201.12 620.908,-206.802 616.093,-205.453 616.093,-205.453 616.093,-205.453 620.908,-206.802 614.88,-209.787 625.723,-208.15 625.723,-208.15"/>
<polygon fill="#c59fac" stroke="#c59fac" points="830.413,-283.402 839.804,-289.064 835.377,-283.999 840.341,-284.596 840.341,-284.596 840.341,-284.596 835.377,-283.999 840.879,-280.128 830.413,-283.402 830.413,-283.402"/>
<text text-anchor="middle" x="745.045" y="-237.4" font-family="Times,serif" font-size="14.00">users_taken</text>
</g>
<!-- User&#45;&gt;Badge -->
<g id="edge38" class="edge"><title>User&#45;&gt;Badge</title>
<path fill="none" stroke="#716cda" d="M840.068,-271.617C829.735,-265.808 818.145,-258.922 808,-252 793.896,-242.377 778.999,-230.571 766.935,-220.547"/>
<ellipse fill="none" stroke="#716cda" cx="843.833" cy="-273.703" rx="4.00002" ry="4.00002"/>
<polygon fill="#716cda" stroke="#716cda" points="766.732,-220.377 761.976,-210.496 762.906,-217.158 759.079,-213.94 759.079,-213.94 759.079,-213.94 762.906,-217.158 756.183,-217.384 766.732,-220.377 766.732,-220.377"/>
</g>
<!-- User&#45;&gt;Comment -->
<g id="edge40" class="edge"><title>User&#45;&gt;Comment</title>
<path fill="none" stroke="#50870a" d="M860.545,-262.31C859.573,-258.876 858.687,-255.37 858,-252 849.917,-212.337 846.456,-165.501 845.005,-136.521"/>
<ellipse fill="none" stroke="#50870a" cx="861.748" cy="-266.268" rx="4.00001" ry="4.00001"/>
<polygon fill="#50870a" stroke="#50870a" points="844.997,-136.33 849.037,-126.136 844.769,-131.335 844.542,-126.341 844.542,-126.341 844.542,-126.341 844.769,-131.335 840.047,-126.545 844.997,-136.33 844.997,-136.33"/>
</g>
<!-- User&#45;&gt;Quiz -->
<g id="edge36" class="edge"><title>User&#45;&gt;Quiz</title>
<path fill="none" stroke="#f6d793" d="M829.462,-286.237C737.99,-284.064 517.862,-276.334 495.703,-252 475.555,-229.874 517.43,-214.647 551.422,-206.373"/>
<polygon fill="#f6d793" stroke="#f6d793" points="829.704,-286.243 839.6,-290.969 834.703,-286.356 839.702,-286.47 839.702,-286.47 839.702,-286.47 834.703,-286.356 839.804,-281.971 829.704,-286.243 829.704,-286.243"/>
<polygon fill="#f6d793" stroke="#f6d793" points="551.446,-206.368 562.2,-208.511 556.318,-205.247 561.191,-204.126 561.191,-204.126 561.191,-204.126 556.318,-205.247 560.182,-199.74 551.446,-206.368 551.446,-206.368"/>
<text text-anchor="middle" x="534.648" y="-237.4" font-family="Times,serif" font-size="14.00">quizzes_taken</text>
</g>
<!-- User&#45;&gt;Quiz -->
<g id="edge44" class="edge"><title>User&#45;&gt;Quiz</title>
<path fill="none" stroke="#58a877" d="M829.459,-287.358C713.959,-287.994 383.183,-286.74 350.71,-252 345.247,-246.156 345.48,-240.054 350.71,-234 375.903,-204.836 488.366,-199.525 549.357,-198.836"/>
<polygon fill="#58a877" stroke="#58a877" points="829.631,-287.357 839.659,-291.794 834.631,-287.326 839.631,-287.294 839.631,-287.294 839.631,-287.294 834.631,-287.326 839.603,-282.794 829.631,-287.357 829.631,-287.357"/>
<polygon fill="#58a877" stroke="#58a877" points="549.399,-198.836 559.433,-203.26 554.399,-198.798 559.398,-198.76 559.398,-198.76 559.398,-198.76 554.399,-198.798 559.364,-194.26 549.399,-198.836 549.399,-198.836"/>
<text text-anchor="middle" x="417.645" y="-237.4" font-family="Times,serif" font-size="14.00">quizzes_commented_on</text>
</g>
<!-- User&#45;&gt;QuizScore -->
<g id="edge34" class="edge"><title>User&#45;&gt;QuizScore</title>
<path fill="none" stroke="#a512ad" d="M852.123,-264.576C835.575,-242.748 809.481,-208.756 786,-180 773.026,-164.111 758.016,-146.63 746.132,-132.989"/>
<ellipse fill="none" stroke="#a512ad" cx="854.732" cy="-268.024" rx="4.00002" ry="4.00002"/>
<polygon fill="#a512ad" stroke="#a512ad" points="746.116,-132.971 742.923,-122.48 742.825,-129.207 739.535,-125.442 739.535,-125.442 739.535,-125.442 742.825,-129.207 736.147,-128.404 746.116,-132.971 746.116,-132.971"/>
</g>
<!-- User&#45;&gt;Video -->
<g id="edge28" class="edge"><title>User&#45;&gt;Video</title>
<path fill="none" stroke="#4a2a70" d="M906.466,-286.353C969.121,-284.554 1091.59,-277.748 1125,-252 1133.32,-245.591 1138.51,-235.476 1141.75,-225.793"/>
<ellipse fill="none" stroke="#4a2a70" cx="902.4" cy="-286.461" rx="4" ry="4"/>
<polygon fill="#4a2a70" stroke="#4a2a70" points="1141.79,-225.667 1148.8,-217.237 1143.12,-220.85 1144.46,-216.032 1144.46,-216.032 1144.46,-216.032 1143.12,-220.85 1140.13,-214.827 1141.79,-225.667 1141.79,-225.667"/>
<text text-anchor="middle" x="1174.93" y="-237.4" font-family="Times,serif" font-size="14.00">videos_made</text>
</g>
<!-- User&#45;&gt;Video -->
<g id="edge32" class="edge"><title>User&#45;&gt;Video</title>
<path fill="none" stroke="#c9b8c6" d="M908.324,-285.929C994.658,-283.173 1194.74,-274.412 1215,-252 1229.11,-236.385 1207.2,-221.933 1184.59,-212.077"/>
<polygon fill="#c9b8c6" stroke="#c9b8c6" points="908.131,-285.935 897.997,-281.746 903.133,-286.089 898.136,-286.244 898.136,-286.244 898.136,-286.244 903.133,-286.089 898.274,-290.741 908.131,-285.935 908.131,-285.935"/>
<polygon fill="#c9b8c6" stroke="#c9b8c6" points="1184.55,-212.061 1176.99,-204.11 1179.92,-210.168 1175.29,-208.275 1175.29,-208.275 1175.29,-208.275 1179.92,-210.168 1173.59,-212.44 1184.55,-212.061 1184.55,-212.061"/>
<text text-anchor="middle" x="1260.99" y="-237.4" font-family="Times,serif" font-size="14.00">videos_viewed</text>
</g>
<!-- User&#45;&gt;Video -->
<g id="edge42" class="edge"><title>User&#45;&gt;Video</title>
<path fill="none" stroke="#b4de3e" d="M908.431,-286.821C1010.87,-285.948 1279.32,-280.898 1306,-252 1341.28,-213.779 1249.76,-203.093 1191.32,-200.125"/>
<polygon fill="#b4de3e" stroke="#b4de3e" points="908.197,-286.823 898.163,-282.399 903.198,-286.861 898.198,-286.899 898.198,-286.899 898.198,-286.899 903.198,-286.861 898.232,-291.399 908.197,-286.823 908.197,-286.823"/>
<polygon fill="#b4de3e" stroke="#b4de3e" points="1191.17,-200.118 1181.39,-195.174 1186.18,-199.894 1181.18,-199.669 1181.18,-199.669 1181.18,-199.669 1186.18,-199.894 1180.98,-204.165 1191.17,-200.118 1191.17,-200.118"/>
<text text-anchor="middle" x="1377.93" y="-237.4" font-family="Times,serif" font-size="14.00">videos_commented_on</text>
</g>
<!-- User&#45;&gt;Video -->
<g id="edge48" class="edge"><title>User&#45;&gt;Video</title>
<path fill="none" stroke="#fc24d4" d="M908.172,-286.082C1035.04,-282.922 1427.56,-271.592 1446,-252 1451.48,-246.174 1451.32,-239.977 1446,-234 1429.35,-215.293 1270.06,-204.98 1191.03,-200.977"/>
<polygon fill="#fc24d4" stroke="#fc24d4" points="908.113,-286.084 898.005,-281.831 903.114,-286.207 898.116,-286.33 898.116,-286.33 898.116,-286.33 903.114,-286.207 898.227,-290.828 908.113,-286.084 908.113,-286.084"/>
<polygon fill="#fc24d4" stroke="#fc24d4" points="1190.88,-200.969 1181.11,-195.981 1185.88,-200.722 1180.89,-200.476 1180.89,-200.476 1180.89,-200.476 1185.88,-200.722 1180.67,-204.97 1190.88,-200.969 1190.88,-200.969"/>
<text text-anchor="middle" x="1485.77" y="-237.4" font-family="Times,serif" font-size="14.00">videos_rated</text>
</g>
<!-- VideoRating -->
<g id="node14" class="node"><title>VideoRating</title>
<ellipse fill="none" stroke="black" cx="1038" cy="-108" rx="59.2193" ry="18"/>
<text text-anchor="middle" x="1038" y="-102.4" font-family="Times,serif" font-size="14.00">VideoRating</text>
</g>
<!-- User&#45;&gt;VideoRating -->
<g id="edge46" class="edge"><title>User&#45;&gt;VideoRating</title>
<path fill="none" stroke="#37c7bd" d="M872.335,-261.54C874.386,-252.331 877.689,-242.193 883,-234 912.993,-187.738 965.773,-150.603 1001.31,-129.178"/>
<ellipse fill="none" stroke="#37c7bd" cx="871.534" cy="-265.724" rx="4.00001" ry="4.00001"/>
<polygon fill="#37c7bd" stroke="#37c7bd" points="1001.34,-129.161 1012.23,-127.948 1005.64,-126.617 1009.95,-124.074 1009.95,-124.074 1009.95,-124.074 1005.64,-126.617 1007.66,-120.2 1001.34,-129.161 1001.34,-129.161"/>
</g>
<!-- VideoView -->
<g id="node15" class="node"><title>VideoView</title>
<ellipse fill="none" stroke="black" cx="1230" cy="-108" rx="54.1053" ry="18"/>
<text text-anchor="middle" x="1230" y="-102.4" font-family="Times,serif" font-size="14.00">VideoView</text>
</g>
<!-- User&#45;&gt;VideoView -->
<g id="edge30" class="edge"><title>User&#45;&gt;VideoView</title>
<path fill="none" stroke="#7899e2" d="M906.317,-286.412C1042.18,-284.092 1503.6,-274.573 1525,-252 1600.21,-172.675 1396.54,-131.888 1290.1,-116.461"/>
<ellipse fill="none" stroke="#7899e2" cx="902.218" cy="-286.481" rx="4" ry="4"/>
<polygon fill="#7899e2" stroke="#7899e2" points="1290.02,-116.45 1280.75,-110.592 1285.07,-115.748 1280.12,-115.047 1280.12,-115.047 1280.12,-115.047 1285.07,-115.748 1279.48,-119.503 1290.02,-116.45 1290.02,-116.45"/>
</g>
<!-- Video&#45;&gt;Comment -->
<g id="edge50" class="edge"><title>Video&#45;&gt;Comment</title>
<path fill="none" stroke="#56393a" d="M1110.12,-186.289C1055.09,-170.306 951.492,-140.219 891.068,-122.67"/>
<ellipse fill="none" stroke="#56393a" cx="1114.11" cy="-187.447" rx="4.00001" ry="4.00001"/>
<polygon fill="#56393a" stroke="#56393a" points="890.997,-122.649 882.649,-115.539 886.195,-121.255 881.393,-119.86 881.393,-119.86 881.393,-119.86 886.195,-121.255 880.138,-124.182 890.997,-122.649 890.997,-122.649"/>
</g>
<!-- Video&#45;&gt;User -->
<g id="edge52" class="edge"><title>Video&#45;&gt;User</title>
<path fill="none" stroke="#1de7a4" d="M1102.92,-200.958C1041.79,-204.399 935.157,-213.245 902.917,-234 892.893,-240.453 885.252,-251.035 879.784,-261.053"/>
<polygon fill="#1de7a4" stroke="#1de7a4" points="1103.06,-200.95 1113.29,-204.907 1108.06,-200.682 1113.05,-200.414 1113.05,-200.414 1113.05,-200.414 1108.06,-200.682 1112.81,-195.92 1103.06,-200.95 1103.06,-200.95"/>
<polygon fill="#1de7a4" stroke="#1de7a4" points="879.629,-261.367 871.166,-268.339 877.415,-265.849 875.2,-270.332 875.2,-270.332 875.2,-270.332 877.415,-265.849 879.235,-272.325 879.629,-261.367 879.629,-261.367"/>
<text text-anchor="middle" x="952.542" y="-237.4" font-family="Times,serif" font-size="14.00">users_commented</text>
</g>
<!-- Video&#45;&gt;User -->
<g id="edge56" class="edge"><title>Video&#45;&gt;User</title>
<path fill="none" stroke="#793202" d="M1105.29,-207.214C1081.65,-212.836 1051.99,-221.554 1027.46,-234 1015.74,-239.948 1015.81,-246.235 1004,-252 973.226,-267.02 935.25,-276.126 907.423,-281.269"/>
<polygon fill="#793202" stroke="#793202" points="1105.6,-207.142 1116.35,-209.306 1110.47,-206.031 1115.35,-204.919 1115.35,-204.919 1115.35,-204.919 1110.47,-206.031 1114.35,-200.532 1105.6,-207.142 1105.6,-207.142"/>
<polygon fill="#793202" stroke="#793202" points="907.141,-281.319 896.512,-278.618 902.216,-282.184 897.292,-283.05 897.292,-283.05 897.292,-283.05 902.216,-282.184 898.071,-287.482 907.141,-281.319 907.141,-281.319"/>
<text text-anchor="middle" x="1048.77" y="-237.4" font-family="Times,serif" font-size="14.00">viewers</text>
</g>
<!-- Video&#45;&gt;User -->
<g id="edge60" class="edge"><title>Video&#45;&gt;User</title>
<path fill="none" stroke="#fb01ab" d="M1115.42,-216.726C1106.9,-221.944 1097.85,-227.9 1089.91,-234 1080.71,-241.072 1081.37,-246.785 1071,-252 1018.97,-278.176 950.927,-285.189 908.596,-286.842"/>
<polygon fill="#fb01ab" stroke="#fb01ab" points="1115.46,-216.705 1126.35,-215.444 1119.75,-214.142 1124.05,-211.58 1124.05,-211.58 1124.05,-211.58 1119.75,-214.142 1121.74,-207.716 1115.46,-216.705 1115.46,-216.705"/>
<polygon fill="#fb01ab" stroke="#fb01ab" points="908.408,-286.848 898.275,-282.657 903.411,-287.001 898.413,-287.155 898.413,-287.155 898.413,-287.155 903.411,-287.001 898.552,-291.653 908.408,-286.848 908.408,-286.848"/>
<text text-anchor="middle" x="1104.54" y="-237.4" font-family="Times,serif" font-size="14.00">raters</text>
</g>
<!-- Video&#45;&gt;VideoRating -->
<g id="edge58" class="edge"><title>Video&#45;&gt;VideoRating</title>
<path fill="none" stroke="#d715b2" d="M1122.69,-177.378C1105.92,-163.836 1083.57,-145.793 1066.05,-131.642"/>
<ellipse fill="none" stroke="#d715b2" cx="1125.89" cy="-179.956" rx="4.00002" ry="4.00002"/>
<polygon fill="#d715b2" stroke="#d715b2" points="1065.65,-131.326 1060.7,-121.543 1061.76,-128.185 1057.87,-125.045 1057.87,-125.045 1057.87,-125.045 1061.76,-128.185 1055.05,-128.546 1065.65,-131.326 1065.65,-131.326"/>
<text text-anchor="middle" x="1121.05" y="-147.4" font-family="Times,serif" font-size="14.00">ratings</text>
</g>
<!-- Video&#45;&gt;VideoView -->
<g id="edge54" class="edge"><title>Video&#45;&gt;VideoView</title>
<path fill="none" stroke="#c56183" d="M1166.99,-175.801C1179.22,-162.842 1194.88,-146.236 1207.53,-132.823"/>
<ellipse fill="none" stroke="#c56183" cx="1164.2" cy="-178.762" rx="4.00002" ry="4.00002"/>
<polygon fill="#c56183" stroke="#c56183" points="1207.72,-132.621 1217.86,-128.434 1211.15,-128.983 1214.58,-125.346 1214.58,-125.346 1214.58,-125.346 1211.15,-128.983 1211.31,-122.258 1207.72,-132.621 1207.72,-132.621"/>
<text text-anchor="middle" x="1211.33" y="-147.4" font-family="Times,serif" font-size="14.00">views</text>
</g>
</g>
</svg>
